<mxfile host="app.diagrams.net" modified="2024-04-24T09:52:11.073Z" agent="Mozilla/5.0 (Windows NT 10.0; Win64; x64) AppleWebKit/537.36 (KHTML, like Gecko) Chrome/124.0.0.0 Safari/537.36" etag="7pLyuCgT52NMjIhZZmgM" version="24.2.5" type="github">
  <diagram id="C5RBs43oDa-KdzZeNtuy" name="Page-1">
    <mxGraphModel dx="1050" dy="574" grid="1" gridSize="10" guides="1" tooltips="1" connect="1" arrows="1" fold="1" page="1" pageScale="1" pageWidth="827" pageHeight="1169" math="0" shadow="0">
      <root>
        <mxCell id="WIyWlLk6GJQsqaUBKTNV-0" />
        <mxCell id="WIyWlLk6GJQsqaUBKTNV-1" parent="WIyWlLk6GJQsqaUBKTNV-0" />
        <mxCell id="inBY2xarSlgA1iWjEmQw-0" style="edgeStyle=orthogonalEdgeStyle;rounded=0;orthogonalLoop=1;jettySize=auto;html=1;exitX=0.5;exitY=1;exitDx=0;exitDy=0;exitPerimeter=0;entryX=0.5;entryY=0;entryDx=0;entryDy=0;" edge="1" parent="WIyWlLk6GJQsqaUBKTNV-1" source="inBY2xarSlgA1iWjEmQw-1" target="inBY2xarSlgA1iWjEmQw-3">
          <mxGeometry relative="1" as="geometry" />
        </mxCell>
        <mxCell id="inBY2xarSlgA1iWjEmQw-1" value="开始" style="strokeWidth=2;html=1;shape=mxgraph.flowchart.terminator;whiteSpace=wrap;" vertex="1" parent="WIyWlLk6GJQsqaUBKTNV-1">
          <mxGeometry x="291" y="20" width="75" height="40" as="geometry" />
        </mxCell>
        <mxCell id="inBY2xarSlgA1iWjEmQw-2" style="edgeStyle=orthogonalEdgeStyle;rounded=0;orthogonalLoop=1;jettySize=auto;html=1;" edge="1" parent="WIyWlLk6GJQsqaUBKTNV-1" source="inBY2xarSlgA1iWjEmQw-3" target="inBY2xarSlgA1iWjEmQw-4">
          <mxGeometry relative="1" as="geometry" />
        </mxCell>
        <mxCell id="inBY2xarSlgA1iWjEmQw-3" value="点击“新增”按钮" style="rounded=0;whiteSpace=wrap;html=1;" vertex="1" parent="WIyWlLk6GJQsqaUBKTNV-1">
          <mxGeometry x="260" y="80" width="137" height="30" as="geometry" />
        </mxCell>
        <mxCell id="inBY2xarSlgA1iWjEmQw-4" value="输入标签名称" style="shape=parallelogram;html=1;strokeWidth=2;perimeter=parallelogramPerimeter;whiteSpace=wrap;rounded=1;arcSize=12;size=0.23;" vertex="1" parent="WIyWlLk6GJQsqaUBKTNV-1">
          <mxGeometry x="275" y="140" width="107" height="30" as="geometry" />
        </mxCell>
        <mxCell id="inBY2xarSlgA1iWjEmQw-5" style="edgeStyle=orthogonalEdgeStyle;rounded=0;orthogonalLoop=1;jettySize=auto;html=1;entryX=0.5;entryY=0;entryDx=0;entryDy=0;entryPerimeter=0;" edge="1" parent="WIyWlLk6GJQsqaUBKTNV-1" source="inBY2xarSlgA1iWjEmQw-9" target="inBY2xarSlgA1iWjEmQw-17">
          <mxGeometry relative="1" as="geometry">
            <mxPoint x="340" y="260" as="targetPoint" />
          </mxGeometry>
        </mxCell>
        <mxCell id="inBY2xarSlgA1iWjEmQw-6" value="Y" style="edgeLabel;html=1;align=center;verticalAlign=middle;resizable=0;points=[];" vertex="1" connectable="0" parent="inBY2xarSlgA1iWjEmQw-5">
          <mxGeometry x="-0.4222" relative="1" as="geometry">
            <mxPoint as="offset" />
          </mxGeometry>
        </mxCell>
        <mxCell id="inBY2xarSlgA1iWjEmQw-7" style="edgeStyle=orthogonalEdgeStyle;rounded=0;orthogonalLoop=1;jettySize=auto;html=1;exitX=0;exitY=0.5;exitDx=0;exitDy=0;exitPerimeter=0;entryX=1;entryY=0.5;entryDx=0;entryDy=0;" edge="1" parent="WIyWlLk6GJQsqaUBKTNV-1" source="inBY2xarSlgA1iWjEmQw-9" target="inBY2xarSlgA1iWjEmQw-12">
          <mxGeometry relative="1" as="geometry" />
        </mxCell>
        <mxCell id="inBY2xarSlgA1iWjEmQw-8" value="N" style="edgeLabel;html=1;align=center;verticalAlign=middle;resizable=0;points=[];" vertex="1" connectable="0" parent="inBY2xarSlgA1iWjEmQw-7">
          <mxGeometry x="-0.2557" y="1" relative="1" as="geometry">
            <mxPoint as="offset" />
          </mxGeometry>
        </mxCell>
        <mxCell id="inBY2xarSlgA1iWjEmQw-9" value="标签名是否合法" style="strokeWidth=2;html=1;shape=mxgraph.flowchart.decision;whiteSpace=wrap;" vertex="1" parent="WIyWlLk6GJQsqaUBKTNV-1">
          <mxGeometry x="270.13" y="200" width="116.75" height="40" as="geometry" />
        </mxCell>
        <mxCell id="inBY2xarSlgA1iWjEmQw-10" style="edgeStyle=orthogonalEdgeStyle;rounded=0;orthogonalLoop=1;jettySize=auto;html=1;entryX=0.5;entryY=0;entryDx=0;entryDy=0;entryPerimeter=0;" edge="1" parent="WIyWlLk6GJQsqaUBKTNV-1" source="inBY2xarSlgA1iWjEmQw-4" target="inBY2xarSlgA1iWjEmQw-9">
          <mxGeometry relative="1" as="geometry" />
        </mxCell>
        <mxCell id="inBY2xarSlgA1iWjEmQw-11" style="edgeStyle=orthogonalEdgeStyle;rounded=0;orthogonalLoop=1;jettySize=auto;html=1;exitX=0.5;exitY=0;exitDx=0;exitDy=0;entryX=0;entryY=0.5;entryDx=0;entryDy=0;" edge="1" parent="WIyWlLk6GJQsqaUBKTNV-1" source="inBY2xarSlgA1iWjEmQw-12" target="inBY2xarSlgA1iWjEmQw-4">
          <mxGeometry relative="1" as="geometry">
            <Array as="points">
              <mxPoint x="169" y="155" />
            </Array>
          </mxGeometry>
        </mxCell>
        <mxCell id="inBY2xarSlgA1iWjEmQw-12" value="提示标签名不合法" style="rounded=0;whiteSpace=wrap;html=1;" vertex="1" parent="WIyWlLk6GJQsqaUBKTNV-1">
          <mxGeometry x="100" y="205" width="137" height="30" as="geometry" />
        </mxCell>
        <mxCell id="inBY2xarSlgA1iWjEmQw-13" style="edgeStyle=orthogonalEdgeStyle;rounded=0;orthogonalLoop=1;jettySize=auto;html=1;entryX=0.5;entryY=1;entryDx=0;entryDy=0;" edge="1" parent="WIyWlLk6GJQsqaUBKTNV-1" source="inBY2xarSlgA1iWjEmQw-17" target="inBY2xarSlgA1iWjEmQw-21">
          <mxGeometry relative="1" as="geometry" />
        </mxCell>
        <mxCell id="inBY2xarSlgA1iWjEmQw-14" value="N" style="edgeLabel;html=1;align=center;verticalAlign=middle;resizable=0;points=[];" vertex="1" connectable="0" parent="inBY2xarSlgA1iWjEmQw-13">
          <mxGeometry x="-0.3242" y="1" relative="1" as="geometry">
            <mxPoint as="offset" />
          </mxGeometry>
        </mxCell>
        <mxCell id="inBY2xarSlgA1iWjEmQw-15" style="edgeStyle=orthogonalEdgeStyle;rounded=0;orthogonalLoop=1;jettySize=auto;html=1;exitX=0.5;exitY=1;exitDx=0;exitDy=0;exitPerimeter=0;" edge="1" parent="WIyWlLk6GJQsqaUBKTNV-1" source="inBY2xarSlgA1iWjEmQw-17" target="inBY2xarSlgA1iWjEmQw-19">
          <mxGeometry relative="1" as="geometry" />
        </mxCell>
        <mxCell id="inBY2xarSlgA1iWjEmQw-16" value="Y" style="edgeLabel;html=1;align=center;verticalAlign=middle;resizable=0;points=[];" vertex="1" connectable="0" parent="inBY2xarSlgA1iWjEmQw-15">
          <mxGeometry x="0.28" y="-1" relative="1" as="geometry">
            <mxPoint as="offset" />
          </mxGeometry>
        </mxCell>
        <mxCell id="inBY2xarSlgA1iWjEmQw-17" value="标签是否已存在" style="strokeWidth=2;html=1;shape=mxgraph.flowchart.decision;whiteSpace=wrap;" vertex="1" parent="WIyWlLk6GJQsqaUBKTNV-1">
          <mxGeometry x="270.13" y="280" width="116.75" height="40" as="geometry" />
        </mxCell>
        <mxCell id="inBY2xarSlgA1iWjEmQw-18" style="edgeStyle=orthogonalEdgeStyle;rounded=0;orthogonalLoop=1;jettySize=auto;html=1;exitX=0.5;exitY=1;exitDx=0;exitDy=0;" edge="1" parent="WIyWlLk6GJQsqaUBKTNV-1" source="inBY2xarSlgA1iWjEmQw-19" target="inBY2xarSlgA1iWjEmQw-22">
          <mxGeometry relative="1" as="geometry" />
        </mxCell>
        <mxCell id="inBY2xarSlgA1iWjEmQw-19" value="保存标签" style="rounded=0;whiteSpace=wrap;html=1;" vertex="1" parent="WIyWlLk6GJQsqaUBKTNV-1">
          <mxGeometry x="260.01" y="350" width="137" height="30" as="geometry" />
        </mxCell>
        <mxCell id="inBY2xarSlgA1iWjEmQw-20" style="edgeStyle=orthogonalEdgeStyle;rounded=0;orthogonalLoop=1;jettySize=auto;html=1;entryX=1;entryY=0.5;entryDx=0;entryDy=0;" edge="1" parent="WIyWlLk6GJQsqaUBKTNV-1" source="inBY2xarSlgA1iWjEmQw-21" target="inBY2xarSlgA1iWjEmQw-4">
          <mxGeometry relative="1" as="geometry">
            <Array as="points">
              <mxPoint x="479" y="155" />
            </Array>
          </mxGeometry>
        </mxCell>
        <mxCell id="inBY2xarSlgA1iWjEmQw-21" value="提示标签已存在" style="rounded=0;whiteSpace=wrap;html=1;" vertex="1" parent="WIyWlLk6GJQsqaUBKTNV-1">
          <mxGeometry x="410" y="205" width="137" height="30" as="geometry" />
        </mxCell>
        <mxCell id="inBY2xarSlgA1iWjEmQw-22" value="结束" style="strokeWidth=2;html=1;shape=mxgraph.flowchart.terminator;whiteSpace=wrap;" vertex="1" parent="WIyWlLk6GJQsqaUBKTNV-1">
          <mxGeometry x="291.01" y="414" width="75" height="40" as="geometry" />
        </mxCell>
      </root>
    </mxGraphModel>
  </diagram>
</mxfile>
